<svg width="20" height="17" viewBox="0 0 20 17" fill="none" xmlns="http://www.w3.org/2000/svg">
<path d="M18.25 0.509766L1.75 0.509766C1.35218 0.509766 0.970644 0.667801 0.68934 0.949105C0.408035 1.23041 0.25 1.61194 0.25 2.00977L0.25 16.2598C0.250068 16.3876 0.282807 16.5133 0.345109 16.6249C0.407411 16.7365 0.497208 16.8304 0.605974 16.8975C0.71474 16.9647 0.838867 17.0029 0.966569 17.0086C1.09427 17.0143 1.22131 16.9873 1.33563 16.9301L4 15.5979L6.66437 16.9301C6.76857 16.9822 6.88348 17.0094 7 17.0094C7.11652 17.0094 7.23143 16.9822 7.33563 16.9301L10 15.5979L12.6644 16.9301C12.7686 16.9822 12.8835 17.0094 13 17.0094C13.1165 17.0094 13.2314 16.9822 13.3356 16.9301L16 15.5979L18.6644 16.9301C18.7787 16.9873 18.9057 17.0143 19.0334 17.0086C19.1611 17.0029 19.2853 16.9647 19.394 16.8975C19.5028 16.8304 19.5926 16.7365 19.6549 16.6249C19.7172 16.5133 19.7499 16.3876 19.75 16.2598L19.75 2.00977C19.75 1.61194 19.592 1.23041 19.3107 0.949105C19.0294 0.667801 18.6478 0.509766 18.25 0.509766ZM14.5 10.2598L5.5 10.2598C5.30109 10.2598 5.11032 10.1807 4.96967 10.0401C4.82902 9.89944 4.75 9.70868 4.75 9.50977C4.75 9.31085 4.82902 9.12009 4.96967 8.97943C5.11032 8.83878 5.30109 8.75977 5.5 8.75977L14.5 8.75977C14.6989 8.75977 14.8897 8.83878 15.0303 8.97943C15.171 9.12009 15.25 9.31085 15.25 9.50977C15.25 9.70868 15.171 9.89944 15.0303 10.0401C14.8897 10.1807 14.6989 10.2598 14.5 10.2598ZM14.5 7.25977L5.5 7.25977C5.30109 7.25977 5.11032 7.18075 4.96967 7.0401C4.82902 6.89944 4.75 6.70868 4.75 6.50977C4.75 6.31085 4.82902 6.12009 4.96967 5.97944C5.11032 5.83878 5.30109 5.75977 5.5 5.75977L14.5 5.75977C14.6989 5.75977 14.8897 5.83878 15.0303 5.97944C15.171 6.12009 15.25 6.31085 15.25 6.50977C15.25 6.70868 15.171 6.89944 15.0303 7.0401C14.8897 7.18075 14.6989 7.25977 14.5 7.25977Z" fill="#B3B3B3"/>
</svg>
