<svg width="20" height="20" viewBox="0 0 20 20" fill="none" xmlns="http://www.w3.org/2000/svg">
<path d="M0.320135 8.59169C0.541611 6.73456 1.30121 4.9827 2.50545 3.55169C2.63869 3.39101 2.80401 3.25991 2.99082 3.16678C3.17762 3.07365 3.38181 3.02053 3.59033 3.01082C3.79884 3.00112 4.00708 3.03504 4.20173 3.11041C4.39639 3.18579 4.57316 3.30096 4.72076 3.44856L7.31482 6.09794C7.56465 6.34719 7.71774 6.67713 7.74676 7.02883C7.77579 7.38054 7.67885 7.73111 7.47326 8.01794C7.31753 8.23886 7.20026 8.4845 7.12638 8.7445C7.10292 8.82121 7.05547 8.88838 6.99101 8.93613C6.92656 8.98389 6.84848 9.00971 6.76826 9.00981L0.69326 9.00981C0.640324 9.0099 0.587969 8.99878 0.539639 8.97718C0.491309 8.95558 0.4481 8.92399 0.412854 8.88449C0.377608 8.845 0.351124 8.79848 0.335143 8.74802C0.319162 8.69755 0.314048 8.64427 0.320135 8.59169ZM10.8801 0.0154369C10.6729 -0.00263058 10.4643 0.022583 10.2674 0.0894763C10.0704 0.15637 9.88958 0.263481 9.73626 0.404008C9.58295 0.544536 9.46054 0.715408 9.3768 0.905774C9.29306 1.09614 9.24982 1.30184 9.24982 1.50981V5.32262C9.24723 5.67642 9.37088 6.01954 9.59856 6.29035C9.82624 6.56116 10.143 6.74191 10.492 6.80012C11.1491 6.90854 11.7515 7.23253 12.2042 7.72106C12.6569 8.20958 12.9341 8.83485 12.9922 9.49833C13.0504 10.1618 12.886 10.8258 12.5252 11.3855C12.1643 11.9453 11.6275 12.3691 10.9992 12.5901C10.9261 12.617 10.863 12.6656 10.8184 12.7295C10.7738 12.7934 10.7498 12.8694 10.7498 12.9473L10.7498 19.0626C10.7495 19.1157 10.7604 19.1683 10.7819 19.2168C10.8034 19.2654 10.8349 19.3088 10.8744 19.3443C10.914 19.3797 10.9606 19.4064 11.0112 19.4225C11.0618 19.4386 11.1152 19.4437 11.1679 19.4376C13.5078 19.1488 15.6646 18.0245 17.2415 16.2718C18.8183 14.5191 19.7091 12.2558 19.7498 9.89856C19.8201 4.80887 15.9239 0.467312 10.8801 0.0154369ZM8.99201 12.5873C8.57278 12.4378 8.19208 12.1968 7.8775 11.8819C7.56293 11.567 7.32237 11.1861 7.17326 10.7667C7.14769 10.6923 7.09972 10.6277 7.03592 10.5817C6.97213 10.5357 6.89565 10.5106 6.81701 10.5098L0.692323 10.5098C0.639317 10.5095 0.586842 10.5204 0.538359 10.5418C0.489876 10.5632 0.446486 10.5947 0.41105 10.6341C0.375615 10.6735 0.34894 10.72 0.332784 10.7705C0.316628 10.821 0.311359 10.8743 0.317323 10.927C0.579929 13.094 1.56141 15.1103 3.10489 16.6538C4.64837 18.1973 6.66474 19.1788 8.8317 19.4414C8.88437 19.4473 8.9377 19.4421 8.98819 19.4259C9.03867 19.4098 9.08516 19.3831 9.12458 19.3476C9.164 19.3122 9.19546 19.2688 9.21689 19.2203C9.23832 19.1719 9.24922 19.1194 9.24889 19.0664L9.24889 12.9473C9.24904 12.868 9.22434 12.7906 9.17827 12.7261C9.1322 12.6615 9.06706 12.613 8.99201 12.5873Z" fill="#B3B3B3"/>
</svg>
