<svg width="16" height="17" viewBox="0 0 16 17" fill="none" xmlns="http://www.w3.org/2000/svg">
<path d="M15.4569 8.17751C15.435 8.12813 14.9056 6.95375 13.7287 5.77688C12.1606 4.20875 10.18 3.38 7.99999 3.38C5.81999 3.38 3.83937 4.20875 2.27124 5.77688C1.09437 6.95375 0.562494 8.13 0.543119 8.17751C0.51469 8.24145 0.5 8.31065 0.5 8.38063C0.5 8.45061 0.51469 8.51981 0.543119 8.58375C0.564994 8.63313 1.09437 9.80688 2.27124 10.9838C3.83937 12.5513 5.81999 13.38 7.99999 13.38C10.18 13.38 12.1606 12.5513 13.7287 10.9838C14.9056 9.80688 15.435 8.63313 15.4569 8.58375C15.4853 8.51981 15.5 8.45061 15.5 8.38063C15.5 8.31065 15.4853 8.24145 15.4569 8.17751ZM7.99999 10.88C7.50554 10.88 7.02219 10.7334 6.61107 10.4587C6.19995 10.184 5.87951 9.79353 5.6903 9.33671C5.50108 8.8799 5.45157 8.37723 5.54803 7.89228C5.64449 7.40733 5.8826 6.96187 6.23223 6.61224C6.58186 6.26261 7.02732 6.0245 7.51227 5.92804C7.99722 5.83158 8.49989 5.88109 8.9567 6.07031C9.41352 6.25952 9.80396 6.57996 10.0787 6.99108C10.3534 7.4022 10.5 7.88555 10.5 8.38C10.5 9.04305 10.2366 9.67893 9.76776 10.1478C9.29892 10.6166 8.66304 10.88 7.99999 10.88Z" fill="#252623"/>
</svg>
