<svg width="18" height="22" viewBox="0 0 18 22" fill="none" xmlns="http://www.w3.org/2000/svg">
<path d="M14.25 3.3357V1.75977C14.25 1.36194 14.092 0.98041 13.8107 0.699105C13.5294 0.417801 13.1478 0.259766 12.75 0.259766L5.25 0.259766C4.85218 0.259766 4.47064 0.417801 4.18934 0.699105C3.90804 0.98041 3.75 1.36194 3.75 1.75977V3.3357C2.90354 3.50938 2.14289 3.96971 1.59637 4.63902C1.04985 5.30834 0.75092 6.14567 0.75 7.00977L0.75 17.5098C0.75 18.5043 1.14509 19.4582 1.84835 20.1614C2.55161 20.8647 3.50544 21.2598 4.5 21.2598L13.5 21.2598C14.4946 21.2598 15.4484 20.8647 16.1517 20.1614C16.8549 19.4582 17.25 18.5043 17.25 17.5098L17.25 7.00977C17.2491 6.14567 16.9501 5.30834 16.4036 4.63902C15.8571 3.96971 15.0965 3.50938 14.25 3.3357ZM8.25 1.75977L9.75 1.75977V3.25977H8.25V1.75977ZM5.25 1.75977L6.75 1.75977L6.75 3.25977H5.25L5.25 1.75977ZM9.75 16.0098V16.7598C9.75 16.9587 9.67098 17.1494 9.53033 17.2901C9.38968 17.4307 9.19891 17.5098 9 17.5098C8.80109 17.5098 8.61032 17.4307 8.46967 17.2901C8.32902 17.1494 8.25 16.9587 8.25 16.7598V16.0098H7.5C7.30109 16.0098 7.11032 15.9307 6.96967 15.7901C6.82902 15.6494 6.75 15.4587 6.75 15.2598C6.75 15.0609 6.82902 14.8701 6.96967 14.7294C7.11032 14.5888 7.30109 14.5098 7.5 14.5098H9.75C9.94891 14.5098 10.1397 14.4307 10.2803 14.2901C10.421 14.1494 10.5 13.9587 10.5 13.7598C10.5 13.5609 10.421 13.3701 10.2803 13.2294C10.1397 13.0888 9.94891 13.0098 9.75 13.0098H8.25C7.65326 13.0098 7.08097 12.7727 6.65901 12.3508C6.23705 11.9288 6 11.3565 6 10.7598C6 10.163 6.23705 9.59073 6.65901 9.16878C7.08097 8.74682 7.65326 8.50977 8.25 8.50977V7.75977C8.25 7.56085 8.32902 7.37009 8.46967 7.22944C8.61032 7.08878 8.80109 7.00977 9 7.00977C9.19891 7.00977 9.38968 7.08878 9.53033 7.22944C9.67098 7.37009 9.75 7.56085 9.75 7.75977V8.50977H10.5C10.6989 8.50977 10.8897 8.58878 11.0303 8.72944C11.171 8.87009 11.25 9.06085 11.25 9.25977C11.25 9.45868 11.171 9.64944 11.0303 9.7901C10.8897 9.93075 10.6989 10.0098 10.5 10.0098H8.25C8.05109 10.0098 7.86032 10.0888 7.71967 10.2294C7.57902 10.3701 7.5 10.5609 7.5 10.7598C7.5 10.9587 7.57902 11.1494 7.71967 11.2901C7.86032 11.4307 8.05109 11.5098 8.25 11.5098H9.75C10.3467 11.5098 10.919 11.7468 11.341 12.1688C11.7629 12.5907 12 13.163 12 13.7598C12 14.3565 11.7629 14.9288 11.341 15.3508C10.919 15.7727 10.3467 16.0098 9.75 16.0098ZM12.75 3.25977H11.25V1.75977L12.75 1.75977V3.25977Z" fill="#B3B3B3"/>
</svg>
