<svg width="18" height="17" viewBox="0 0 18 17" fill="none" xmlns="http://www.w3.org/2000/svg">
<path d="M8.19292 12.9725C8.24976 13.1095 8.2647 13.2603 8.23583 13.4059C8.20696 13.5514 8.13558 13.6851 8.03073 13.79L5.03073 16.79C4.96107 16.8597 4.87836 16.9151 4.78731 16.9528C4.69626 16.9905 4.59866 17.01 4.5001 17.01C4.40154 17.01 4.30395 16.9905 4.2129 16.9528C4.12185 16.9151 4.03913 16.8597 3.96948 16.79L0.969477 13.79C0.864469 13.6851 0.792943 13.5514 0.763955 13.4059C0.734968 13.2603 0.749821 13.1094 0.806635 12.9723C0.86345 12.8352 0.95967 12.718 1.08312 12.6356C1.20656 12.5532 1.35168 12.5093 1.5001 12.5094H3.7501L3.7501 1.25938C3.7501 1.06047 3.82912 0.869701 3.96977 0.729049C4.11043 0.588397 4.30119 0.509379 4.5001 0.509379C4.69902 0.509379 4.88978 0.588397 5.03043 0.729049C5.17108 0.869701 5.2501 1.06047 5.2501 1.25938L5.2501 12.5094L7.5001 12.5094C7.64844 12.5094 7.79343 12.5534 7.91675 12.6359C8.04007 12.7183 8.13618 12.8354 8.19292 12.9725ZM17.0307 3.72875L14.0307 0.728754C13.9611 0.659022 13.8784 0.603703 13.7873 0.565959C13.6963 0.528216 13.5987 0.508789 13.5001 0.508789C13.4015 0.508789 13.3039 0.528216 13.2129 0.565959C13.1219 0.603703 13.0391 0.659022 12.9695 0.728754L9.96948 3.72875C9.86447 3.83365 9.79294 3.96734 9.76396 4.1129C9.73497 4.25846 9.74982 4.40935 9.80664 4.54647C9.86345 4.68359 9.95967 4.80077 10.0831 4.88317C10.2066 4.96557 10.3517 5.0095 10.5001 5.00938H12.7501L12.7501 16.2594C12.7501 16.4583 12.8291 16.6491 12.9698 16.7897C13.1104 16.9304 13.3012 17.0094 13.5001 17.0094C13.699 17.0094 13.8898 16.9304 14.0304 16.7897C14.1711 16.6491 14.2501 16.4583 14.2501 16.2594L14.2501 5.00938L16.5001 5.00938C16.6485 5.0095 16.7936 4.96557 16.9171 4.88317C17.0405 4.80077 17.1368 4.68359 17.1936 4.54647C17.2504 4.40935 17.2652 4.25846 17.2362 4.1129C17.2073 3.96734 17.1357 3.83365 17.0307 3.72875Z" fill="#B3B3B3"/>
</svg>
